<svg width="167" height="167" viewBox="0 0 167 167" fill="none" xmlns="http://www.w3.org/2000/svg">
<circle cx="83.5" cy="83.5" r="83.5" fill="white"/>
<path d="M20.8633 63.9546L20.0772 66.5241L21.1977 67.2339C21.3639 67.334 21.5411 67.4147 21.7257 67.4744C21.9603 67.5448 22.0601 67.4099 22.1832 67.011L22.6174 67.14L22.0307 68.9704L21.6025 68.8413C21.7139 68.4717 21.6377 68.2899 21.1918 67.9789L14.686 63.5968L14.9266 62.8224L22.7053 62.576C23.4152 62.576 23.5736 62.4646 23.6909 62.0891L24.1191 62.2182L23.3448 64.7642L22.9107 64.6351C23.0339 64.2069 22.9987 64.0485 22.7875 63.9781C22.6312 63.9458 22.471 63.9379 22.3123 63.9546H20.8633ZM20.2767 63.9546L16.3755 64.0133V64.0426L19.6079 66.1604L20.2767 63.9546Z" fill="#491819"/>
<path d="M24.7413 55.6187L26.466 56.7919L24.2485 61.9485L23.832 61.7725C24.1605 61.0157 24.0901 60.8867 23.3216 60.5581L18.1357 58.323C17.3672 57.9945 17.2499 58.0356 16.9214 58.7982L16.4932 58.6105L17.772 55.6773L18.2003 55.8592C17.8483 56.657 17.9011 56.7391 18.7048 57.0852L24.1488 59.4318C24.6005 59.6254 24.6709 59.5726 24.7823 59.3027L25.4276 57.8185C25.7033 57.185 25.6388 57.0383 24.5066 56.1994L24.7413 55.6187Z" fill="#491819"/>
<path d="M25.762 46.508L28.2376 48.0391L27.9443 48.5143C27.0174 47.9276 26.8707 47.9922 26.6067 48.4087L26.0201 49.4118L28.2434 50.7846C28.965 51.2363 29.0706 51.2363 29.5986 50.3739L29.9858 50.6144L28.2258 53.4714L27.8387 53.2308C28.2786 52.521 28.2258 52.3978 27.5219 51.9637L22.7056 48.9895C21.9958 48.5436 21.8667 48.5788 21.4385 49.2769L21.0396 49.0364L23.8378 44.5076L25.6153 45.1822L25.3103 45.675C24.1018 45.2819 23.9434 45.323 23.6208 45.851L22.8992 47.0242C22.7056 47.341 22.7643 47.4114 23.1808 47.6695L25.5273 49.1068L26.114 48.1212C26.3779 47.693 26.3193 47.5346 25.4628 46.9832L25.762 46.508Z" fill="#491819"/>
<path d="M31.1122 48.0511C31.6519 47.3236 31.5991 47.2004 30.9362 46.7135L26.3663 43.3697C25.6916 42.8711 25.5802 42.871 25.0522 43.5926L24.6768 43.3169L26.6361 40.6477L27.0116 40.9176C26.4836 41.6391 26.5129 41.7623 27.1876 42.2551L31.7457 45.5989C32.4145 46.0917 32.5553 46.0917 33.0833 45.3701L33.447 45.64L31.4817 48.3209L31.1122 48.0511Z" fill="#491819"/>
<path d="M29.4341 37.2333C29.9172 36.5612 30.6109 36.0698 31.4052 35.8371C31.7153 35.7632 32.0391 35.7686 32.3466 35.8527C32.6542 35.9367 32.9356 36.0968 33.1651 36.3181C33.58 36.6738 33.8477 37.1712 33.9161 37.7134C33.9844 38.2556 33.8484 38.8038 33.5347 39.2513L36.6556 39.9025C37.471 40.055 37.6646 39.967 37.9755 39.6268L38.3158 39.9201L37.0662 41.3397L32.8718 40.3307L32.3438 40.9174L34.1858 42.5306C34.8311 43.1173 34.925 43.1173 35.4471 42.5306L35.7932 42.8298L33.7165 45.1764L33.3704 44.883C33.9219 44.2495 33.8925 44.1204 33.2648 43.5631L29.0235 39.838C28.3958 39.2865 28.2726 39.2865 27.7211 39.9142L27.3691 39.6092L29.4341 37.2333ZM29.4752 38.0253C29.2992 38.2306 29.3696 38.3244 29.8213 38.7175L31.898 40.5478L32.3379 40.055C33.0654 39.222 33.3235 38.3479 32.2441 37.3976C32.0786 37.2365 31.8818 37.1112 31.6658 37.0294C31.4498 36.9477 31.2193 36.9113 30.9887 36.9224C30.7632 36.9542 30.5463 37.0307 30.3509 37.1476C30.1554 37.2645 29.9853 37.4193 29.8506 37.6029L29.4752 38.0253Z" fill="#491819"/>
<path d="M38.4686 39.7618L38.1695 39.4274C38.803 38.8407 38.7561 38.7293 38.2223 38.1133L34.4443 33.9013C33.8577 33.2794 33.7755 33.256 33.142 33.8191L32.8252 33.4789L35.2891 31.2673C36.257 30.399 37.049 30.094 37.9817 30.094C39.1382 30.253 40.1888 30.8518 40.9149 31.7659C41.7287 32.5617 42.2356 33.6191 42.3463 34.7519C42.3463 35.7081 41.9709 36.6233 40.7976 37.6851L38.4686 39.7618ZM35.1659 32.0944C34.9371 32.2997 34.9547 32.4053 35.2773 32.7632L39.3486 37.2979C39.7651 37.7613 39.8648 37.7965 40.1288 37.5619L40.4397 37.2744C41.3138 36.4883 41.9181 35.098 39.9118 32.8571C38.322 31.0971 36.8906 30.5457 35.6293 31.6838L35.1659 32.0944Z" fill="#491819"/>
<path d="M42.0295 31.0032C40.6685 29.0379 40.2696 26.8615 42.493 25.348C44.8747 23.6937 46.7813 25.1837 47.9721 26.8967C49.2393 28.7388 49.8142 30.9621 47.4852 32.5695C45.3499 34.0419 43.4902 33.1151 42.0295 31.0032ZM41.965 27.2194C41.965 27.9116 42.2759 28.8326 43.2086 30.1877C44.0534 31.408 45.5904 33.2324 47.1743 32.1412C47.4178 31.9745 47.6185 31.7526 47.7602 31.4937C47.9019 31.2348 47.9805 30.9462 47.9897 30.6512C47.8605 29.5798 47.4383 28.5649 46.7695 27.718C45.8016 26.3277 44.3643 24.6734 42.7863 25.7645C42.5471 25.9266 42.3486 26.1416 42.2061 26.3929C42.0637 26.6443 41.9812 26.9251 41.965 27.2135" fill="#491819"/>
<path d="M51.5444 26.4451C52.002 27.3309 52.7822 28.5042 54.2254 27.7592C55.6685 27.0142 55.076 25.5417 54.7064 24.826L52.7764 21.1302C52.3833 20.3793 52.2719 20.3441 51.6031 20.6785L51.3919 20.2678L53.4041 19.2354L53.6211 19.6401C52.9993 19.9686 52.97 20.086 53.3572 20.8134L55.3341 24.6089C55.7712 25.286 55.925 26.1075 55.7624 26.8968C55.6462 27.2405 55.4586 27.5556 55.2119 27.8215C54.9652 28.0874 54.6649 28.2981 54.331 28.4397C51.9844 29.6657 51.0458 28.4397 50.3477 27.108L48.4059 23.3829C48.0188 22.6437 47.919 22.5968 47.2327 22.9488L47.0215 22.5322L49.6965 21.1419L49.9136 21.5526C49.2624 21.8869 49.2331 21.9808 49.632 22.7258L51.5444 26.4451Z" fill="#491819"/>
<path d="M57.5105 24.3274C58.3494 25.5006 58.9947 25.6708 59.857 25.3247C60.042 25.2626 60.2121 25.1629 60.3566 25.0319C60.5012 24.9008 60.617 24.7413 60.6969 24.5634C60.7768 24.3854 60.819 24.1928 60.8209 23.9977C60.8227 23.8026 60.7842 23.6093 60.7076 23.4298C60.3674 22.5557 59.6986 22.4032 58.3963 22.1099C56.9062 21.7931 56.0146 21.5936 55.557 20.4145C55.2285 19.5815 55.4162 18.244 57.2348 17.5283C57.7955 17.3055 58.3915 17.1844 58.9947 17.1704C59.2059 17.5811 59.5285 18.156 59.8746 18.725L59.3643 19.0242C58.7014 17.9682 58.32 17.7042 57.3814 18.0738C57.2185 18.1145 57.0663 18.1896 56.9349 18.2941C56.8036 18.3986 56.6962 18.5301 56.62 18.6797C56.5438 18.8293 56.5006 18.9935 56.4933 19.1612C56.486 19.3289 56.5148 19.4962 56.5777 19.6519C56.8535 20.3558 57.3756 20.5084 58.6779 20.8252C59.4175 20.9344 60.1369 21.1519 60.8132 21.4705C61.255 21.7442 61.5934 22.1569 61.7753 22.6437C62.2446 23.8581 61.7108 25.2249 59.9744 25.8996C59.336 26.1344 58.6652 26.269 57.9857 26.2985C57.6963 25.7365 57.3649 25.1972 56.9942 24.6852L57.5105 24.3274Z" fill="#491819"/>
<path d="M73.5669 23.8873C73.2016 24.143 72.7917 24.328 72.3584 24.4329C71.4609 24.6265 70.1351 24.4974 68.9501 23.0132C67.1021 23.1716 65.7588 21.9984 65.1956 19.4113C64.6852 17.0648 65.1956 14.9177 67.7768 14.3604C70.6102 13.7385 71.8011 15.8387 72.2469 17.8802C72.7456 20.1622 72.2469 22.0629 70.2524 22.7434C71.1734 23.8404 71.8656 23.9929 72.5579 23.8404C72.8831 23.7655 73.1928 23.6344 73.473 23.4532L73.5669 23.8873ZM66.5918 15.8856C66.3043 16.5192 66.2574 17.4989 66.5918 19.1063C66.9027 20.5552 67.6301 22.8197 69.525 22.4149C69.8128 22.3537 70.0822 22.2258 70.3115 22.0413C70.5408 21.8569 70.7235 21.6211 70.8449 21.3531C71.1326 20.3147 71.1326 19.2177 70.8449 18.1794C70.4812 16.5251 69.7889 14.4542 67.9117 14.859C67.6286 14.9142 67.3628 15.0361 67.1363 15.2147C66.9098 15.3932 66.7291 15.6232 66.6094 15.8856" fill="#491819"/>
<path d="M75.6966 18.8189C75.7904 19.8103 76.0603 21.2006 77.6853 21.0539C79.3102 20.9073 79.3161 19.3292 79.2457 18.5255L78.8703 14.3663C78.794 13.5215 78.7001 13.4511 77.9844 13.5157L77.9492 13.0522L80.155 12.8586L80.1961 13.3162C79.5038 13.3866 79.4276 13.4746 79.5038 14.3076L79.8851 18.5842C80.0299 19.374 79.8593 20.1891 79.41 20.8545C79.1717 21.1209 78.8809 21.3351 78.5558 21.4835C78.2307 21.6319 77.8783 21.7114 77.521 21.7168C74.8811 21.9515 74.4764 20.479 74.3414 18.9655L73.966 14.7887C73.8956 13.9557 73.8193 13.8618 73.0626 13.9322L73.0156 13.4746L76.0251 13.1989L76.072 13.6682C75.3387 13.7327 75.28 13.809 75.3504 14.6596L75.6966 18.8189Z" fill="#491819"/>
<path d="M85.669 18.7836L82.9939 18.7132L82.5774 19.9569C82.5111 20.1365 82.4678 20.3237 82.4483 20.5142C82.4483 20.7664 82.6009 20.8251 83.035 20.8368V21.2885L81.1284 21.2416V20.784C81.5156 20.784 81.6623 20.6784 81.8441 20.1563L84.3373 12.7061H85.1527L87.4993 20.1211C87.7046 20.8075 87.8395 20.9366 88.2326 20.9483V21.4L85.5693 21.3296V20.8779C86.0151 20.8779 86.1559 20.8016 86.1559 20.5904C86.1482 20.4408 86.1205 20.2928 86.0738 20.1505L85.669 18.7836ZM85.5047 18.197L84.396 14.4601H84.3667L83.1934 18.1442L85.5047 18.197Z" fill="#491819"/>
<path d="M94.7091 20.2678L94.0462 22.2506L88.479 21.5056L88.5377 21.0539C89.359 21.1653 89.4646 21.0539 89.5701 20.2326L90.321 14.6361C90.4325 13.803 90.3562 13.7033 89.535 13.5977L89.5995 13.1343L92.7966 13.5625L92.7321 14.0201C91.8698 13.9028 91.8052 13.979 91.6879 14.8414L90.9018 20.7077C90.8373 21.1888 90.9018 21.2475 91.201 21.2944L92.8025 21.4997C93.4889 21.5936 93.6179 21.4997 94.1166 20.1856L94.7091 20.2678Z" fill="#491819"/>
<path d="M94.9088 21.9807C95.7946 22.1743 95.8885 22.0805 96.0821 21.2709L97.2964 15.7448C97.4724 14.9235 97.4255 14.8238 96.5514 14.6302L96.6511 14.1785L99.8894 14.8883L99.7955 15.34C98.9214 15.1523 98.8275 15.2168 98.6222 16.0381L97.402 21.5701C97.226 22.3738 97.273 22.5028 98.1529 22.6906L98.0532 23.1364L94.8032 22.4266L94.9088 21.9807Z" fill="#491819"/>
<path d="M104.547 16.8301L102.635 23.0015C102.388 23.7994 102.406 23.9167 103.356 24.2159L103.227 24.65L99.9067 23.6175L100.042 23.1834C100.98 23.4767 101.068 23.4004 101.315 22.5968L103.227 16.4371L102.177 16.1086C101.532 15.9091 101.414 15.9326 100.775 17.188L100.241 17.0296L101.098 15.1582L107.023 16.9944L106.682 19.0241L106.149 18.8599C106.325 17.4402 106.237 17.364 105.597 17.1704L104.547 16.8301Z" fill="#491819"/>
<path d="M108.964 22.9194L108.548 18.9127C108.477 18.1442 108.395 17.9975 108.008 17.8333L108.196 17.405L110.83 18.5783L110.648 19.0007C110.243 18.8247 110.061 18.8012 109.967 19.0007C109.934 19.183 109.934 19.3698 109.967 19.5521L110.231 22.7082H110.267L112.654 20.7078C112.819 20.5903 112.959 20.4407 113.065 20.2678C113.135 20.1153 113.018 20.0156 112.672 19.863L112.865 19.4348L114.625 20.215L114.449 20.6374C114.062 20.4731 113.921 20.5025 113.399 20.9366L110.237 23.4767L109.31 25.5945C108.982 26.3571 109.005 26.492 109.868 26.8675L109.686 27.284L106.553 25.9113L106.735 25.5006C107.609 25.8819 107.715 25.8057 108.043 25.043L108.964 22.9194Z" fill="#491819"/>
<path d="M114.356 29.1142C115.066 29.5718 115.189 29.5131 115.635 28.8209L118.691 24.0633C119.149 23.3534 119.131 23.2361 118.427 22.7785L118.679 22.3914L121.36 24.1219C122.393 24.7848 122.862 25.2952 123.079 25.8818C123.166 26.2029 123.186 26.5388 123.136 26.8678C123.087 27.1969 122.969 27.512 122.791 27.793C122.612 28.0739 122.377 28.3147 122.101 28.4997C121.824 28.6848 121.512 28.8102 121.184 28.8678C120.527 28.9324 119.811 28.7446 118.685 28.0172L118.052 27.6124L116.796 29.5659C116.344 30.2699 116.333 30.3872 117.166 30.9152L116.925 31.2965L114.109 29.4897L114.356 29.1142ZM118.984 27.542C120.158 28.2988 120.944 28.0348 121.583 27.0375C122.504 25.6061 121.507 24.8728 120.944 24.515L120.539 24.251C120.339 24.1219 120.251 24.1923 119.952 24.6558L118.357 27.1372L118.984 27.542Z" fill="#491819"/>
<path d="M127.737 28.7566C128.426 29.2143 128.946 29.8864 129.215 30.669C129.303 30.9813 129.311 31.3109 129.237 31.6269C129.163 31.9429 129.01 32.235 128.793 32.4758C128.454 32.895 127.972 33.175 127.44 33.2626C126.908 33.3502 126.362 33.2393 125.906 32.951L125.373 36.1012C125.249 36.9167 125.337 37.1103 125.701 37.4036L125.408 37.7497L123.947 36.5764L124.774 32.2998L124.158 31.7953L122.627 33.6491C122.082 34.3179 122.082 34.4117 122.692 34.9162L122.404 35.2624L119.97 33.2795L120.251 32.9217C120.902 33.4555 121.037 33.4145 121.565 32.7633L125.132 28.387C125.66 27.7358 125.66 27.6126 125.009 27.0905L125.302 26.7327L127.737 28.7566ZM126.951 28.8211C126.74 28.651 126.652 28.7272 126.27 29.1907L124.51 31.3436L125.027 31.7601C125.883 32.4582 126.786 32.6812 127.672 31.5665C127.827 31.3961 127.946 31.1957 128.02 30.9778C128.095 30.7599 128.124 30.5291 128.106 30.2994C128.021 29.8448 127.759 29.4423 127.379 29.1789L126.951 28.8211Z" fill="#491819"/>
<path d="M128.687 35.0159C130.412 33.3558 132.5 32.6694 134.348 34.5642C136.36 36.6527 135.193 38.7763 133.697 40.2194C132.084 41.7681 129.978 42.6891 128.013 40.6535C126.223 38.788 126.839 36.7993 128.687 35.0159ZM132.412 34.353C131.726 34.4352 130.864 34.9397 129.685 36.0543C128.611 37.0809 127.062 38.8877 128.394 40.2781C128.595 40.4941 128.845 40.6598 129.122 40.7617C129.399 40.8636 129.696 40.8989 129.99 40.8647C131.024 40.565 131.955 39.9866 132.682 39.1928C133.902 38.0195 135.299 36.3359 133.967 34.9514C133.776 34.7332 133.534 34.5654 133.263 34.4631C132.992 34.3607 132.7 34.327 132.412 34.3648" fill="#491819"/>
<path d="M131.063 43.6276L131.427 43.3577C131.937 44.0382 132.066 44.0265 132.729 43.5279L137.264 40.143C137.933 39.6443 137.968 39.5563 137.457 38.8524L137.827 38.5767L139.804 41.2224C140.584 42.2666 140.848 43.0879 140.713 44.0089C140.449 45.1345 139.759 46.1141 138.789 46.7426C137.927 47.4903 136.827 47.9062 135.686 47.9159C134.735 47.8396 133.855 47.3762 132.911 46.1149L131.063 43.6276ZM138.994 41.0229C138.812 40.7824 138.707 40.7883 138.314 41.0816L133.439 44.7305C132.94 45.0942 132.899 45.1939 133.11 45.4755L133.357 45.8099C134.067 46.7544 135.398 47.4818 137.815 45.6867C139.716 44.2612 140.379 42.8826 139.364 41.5216L138.994 41.0229Z" fill="#491819"/>
<path d="M139.282 50.3271C138.414 50.8199 137.276 51.647 138.079 53.0608C138.883 54.4746 140.326 53.8176 141.013 53.4187L144.644 51.3479C145.377 50.9314 145.407 50.814 145.049 50.1746L145.453 49.9458L146.556 51.87L146.152 52.0988C145.805 51.5121 145.682 51.4652 144.978 51.8817L141.253 54.0112C140.598 54.4754 139.786 54.661 138.995 54.5274C138.646 54.4243 138.323 54.2487 138.047 54.0121C137.771 53.7756 137.548 53.4834 137.393 53.1547C136.073 50.861 137.246 49.8754 138.566 49.1245L142.209 47.0361C142.943 46.6196 142.984 46.5199 142.602 45.8628L143.007 45.634L144.509 48.2622L144.104 48.4851C143.74 47.8574 143.647 47.828 142.931 48.2504L139.282 50.3271Z" fill="#491819"/>
<path d="M147.155 59.1265C148.216 58.405 148.844 57.9533 148.363 56.8563C147.606 55.0963 145.359 55.683 144.051 56.2696C141.464 57.3725 140.895 58.798 141.323 59.8246C141.752 60.8513 142.913 60.9979 143.74 60.8865L143.834 61.4731C141.957 61.7136 141.048 60.7985 140.655 59.8774C139.786 57.8418 140.707 56.1347 143.4 54.979C145.987 53.8761 147.923 54.5214 148.821 56.6333C149.084 57.249 149.219 57.9115 149.219 58.581C148.633 58.8977 148.046 59.2673 147.46 59.6369L147.155 59.1265Z" fill="#491819"/>
<path d="M150.698 64.1893L144.509 66.0548C143.705 66.3012 143.629 66.3834 143.922 67.3396L143.488 67.4686L142.485 64.1424L142.919 64.0134C143.201 64.952 143.318 64.9754 144.092 64.7291L150.275 62.8694L149.959 61.8135C149.765 61.1623 149.683 61.0802 148.281 61.262L148.117 60.7165L150.146 60.3879L151.959 66.3012L150.088 67.1519L149.923 66.6239C151.196 65.9727 151.208 65.8495 151.015 65.2101L150.698 64.1893Z" fill="#491819"/>
<path d="M141.183 83.9999C141.184 95.5076 137.772 106.757 131.38 116.326C124.987 125.895 115.901 133.353 105.27 137.758C94.6382 142.162 82.9394 143.315 71.6527 141.071C60.366 138.827 49.9983 133.286 41.8608 125.149C33.7232 117.012 28.1813 106.645 25.9358 95.3588C23.6903 84.0723 24.8422 72.3735 29.2457 61.7417C33.6493 51.1098 41.1067 42.0226 50.6749 35.6292C60.2431 29.2357 71.4923 25.8232 83 25.8232C98.4305 25.8248 113.229 31.9552 124.14 42.8662C135.051 53.7773 141.181 68.5753 141.183 84.0058" fill="#491819"/>
<mask id="mask0_44_99" style="mask-type:luminance" maskUnits="userSpaceOnUse" x="28" y="29" width="110" height="110">
<path d="M28.1201 83.9999C28.1213 94.8539 31.3409 105.464 37.3719 114.488C43.4029 123.512 51.9743 130.545 62.0024 134.698C72.0305 138.851 83.0648 139.937 93.71 137.819C104.355 135.7 114.133 130.473 121.808 122.798C129.482 115.123 134.709 105.344 136.826 94.6984C138.943 84.053 137.856 73.0187 133.702 62.9911C129.548 52.9635 122.514 44.3928 113.489 38.3628C104.464 32.3328 93.8539 29.1143 82.9999 29.1143C68.4486 29.1298 54.4979 34.9175 44.2091 45.2074C33.9204 55.4973 28.1341 69.4487 28.1201 83.9999Z" fill="white"/>
</mask>
<g mask="url(#mask0_44_99)">
<path d="M137.886 29.1143H28.1201V138.88H137.886V29.1143Z" fill="url(#paint0_linear_44_99)"/>
</g>
<path d="M82.9998 137.525C72.4136 137.525 62.0652 134.386 53.2631 128.504C44.461 122.623 37.6006 114.263 33.5494 104.483C29.4983 94.7027 28.4383 83.9407 30.5036 73.5579C32.5688 63.1751 37.6666 53.6379 45.1521 46.1524C52.6377 38.6668 62.1749 33.5691 72.5577 31.5038C82.9404 29.4386 93.7025 30.4985 103.483 34.5497C113.263 38.6008 121.623 45.4612 127.504 54.2633C133.385 63.0654 136.524 73.4139 136.524 84C136.507 98.1904 130.863 111.795 120.829 121.829C110.794 131.863 97.1902 137.508 82.9998 137.525Z" fill="#711312"/>
<path d="M83.0002 134.163C73.0798 134.159 63.3836 131.213 55.1373 125.698C46.8911 120.183 40.4652 112.347 36.6721 103.18C32.879 94.0138 31.8889 83.9284 33.8271 74.1992C35.7653 64.47 40.5448 55.534 47.5611 48.5209C54.5775 41.5078 63.5158 36.7325 73.2459 34.7988C82.976 32.8652 93.0609 33.86 102.226 37.6574C111.39 41.4548 119.224 47.8844 124.734 56.1332C130.245 64.382 133.187 74.0796 133.187 83.9999C133.171 97.2993 127.881 110.049 118.477 119.454C109.073 128.858 96.323 134.148 83.0236 134.163" fill="#D7A429"/>
<path d="M82.9998 130.157C73.8709 130.157 64.947 127.45 57.3566 122.378C49.7662 117.306 43.8502 110.097 40.3567 101.663C36.8633 93.2294 35.9492 83.9489 37.7302 74.9954C39.5111 66.0419 43.9071 57.8176 50.3622 51.3625C56.8173 44.9074 65.0416 40.5114 73.9951 38.7304C82.9486 36.9495 92.2292 37.8635 100.663 41.357C109.097 44.8505 116.306 50.7665 121.378 58.3569C126.449 65.9473 129.156 74.8712 129.156 84.0001C129.142 96.2372 124.275 107.969 115.622 116.622C106.969 125.275 95.237 130.143 82.9998 130.157Z" fill="#491819"/>
<mask id="mask1_44_99" style="mask-type:luminance" maskUnits="userSpaceOnUse" x="37" y="38" width="92" height="92">
<path d="M37.8467 84.0001C37.8467 92.9341 40.4959 101.667 45.4594 109.096C50.4228 116.524 57.4776 122.314 65.7315 125.733C73.9854 129.152 83.0678 130.046 91.8301 128.303C100.592 126.56 108.641 122.258 114.958 115.941C121.276 109.624 125.578 101.575 127.321 92.8125C129.064 84.0502 128.169 74.9678 124.75 66.7139C121.331 58.46 115.542 51.4052 108.113 46.4418C100.685 41.4783 91.9516 38.8291 83.0177 38.8291C71.04 38.8369 59.5551 43.5984 51.0855 52.068C42.616 60.5375 37.8544 72.0224 37.8467 84.0001Z" fill="white"/>
</mask>
<g mask="url(#mask1_44_99)">
<path d="M56.9082 1.99041L1 110.079L109.089 165.987L164.997 57.8987L56.9082 1.99041Z" fill="url(#paint1_linear_44_99)"/>
</g>
<path d="M117.195 59.4024C116.761 58.9097 104.248 44.9712 76.2771 47.746C76.2771 47.746 84.7833 43.5926 102.905 46.866C94.6786 42.4429 85.2161 40.8788 76.0044 42.4195C66.7927 43.9603 58.3542 48.5186 52.0155 55.3779C45.6767 62.2371 41.7971 71.0084 40.9866 80.3128C40.1761 89.6172 42.4806 98.9272 47.5378 106.779C47.5847 106.832 61.1184 121.774 89.5409 118.952C89.5409 118.952 79.398 124.232 59.5932 119.057C67.8004 124.549 77.6763 126.982 87.4954 125.932C97.3145 124.882 106.453 120.416 113.313 113.313C120.173 106.21 124.32 96.9223 125.029 87.0727C125.737 77.223 122.962 67.4376 117.189 59.4259" fill="#491819"/>
<path d="M72.1767 83.0263L73.7724 91.7789L70.147 92.7527V93.8145H82.085V92.6413L78.9876 91.8434C78.9876 91.8434 75.3621 81.765 73.0625 64.4299L68.9092 65.4917L68.8212 66.3776C68.8212 66.3776 56.9652 89.1039 54.4075 91.6675L50.8877 92.6413V93.8145H61.6759V92.6413L58.3145 91.8434L62.4679 83.0028L72.1767 83.0263ZM69.2435 69.7625L71.8071 81.1725H62.8785L69.2435 69.7625Z" fill="#D9AC28"/>
<path d="M98.6983 73.9276C98.6983 73.9276 94.187 75.0715 91.9696 74.2796L94.099 64.4593C94.099 64.4593 95.6008 58.9801 101.884 62.4295C101.884 62.4295 104.711 58.5401 99.4902 58.2761C93.3892 59.5139 89.3238 66.7589 87.822 74.2796C87.822 74.2796 83.6628 75.3355 83.4868 77.4591C84.7786 76.8212 86.1995 76.4881 87.6402 76.4853C87.6402 76.4853 85.3406 103.195 79.6795 105.758C73.6665 109.56 67.9468 104.585 67.9468 104.585C67.9468 104.585 64.8494 109.624 71.8362 109.712C78.823 109.8 84.8361 104.937 87.9276 97.4223C90.0806 89.7961 91.7349 76.7317 91.7349 76.7317H94.9145C94.9145 76.7317 98.4343 76.0219 98.7217 73.9041" fill="#D9AC28"/>
<path d="M110.636 101.153C111.34 95.4981 113.464 80.621 115.142 73.2998H109.569C105.831 74.1458 102.476 76.1967 100.018 79.1368C96.0408 84.0001 95.507 94.7883 98.5223 93.8027C101.455 93.4508 105.239 90.7992 108.953 83.9883C108.953 83.9883 106.741 104.057 104.441 107.243C104.441 107.243 100.37 107.952 100.288 109.278C100.288 109.278 108.501 107.864 113.728 108.31V107.243H107.627C107.627 107.243 109.921 106.803 110.636 101.142M101.79 90.4413C98.9622 91.7671 101.526 77.4415 106.166 76.0277H110.548C110.548 76.0277 107.451 88.4057 101.79 90.4413Z" fill="#D9AC28"/>
<defs>
<linearGradient id="paint0_linear_44_99" x1="23.3745" y1="83.5148" x2="144.893" y2="83.5148" gradientUnits="userSpaceOnUse">
<stop stop-color="#FFCA06"/>
<stop offset="0.48" stop-color="#FBDE8F"/>
<stop offset="1" stop-color="#FFCA06"/>
</linearGradient>
<linearGradient id="paint1_linear_44_99" x1="40.2487" y1="61.4966" x2="135.179" y2="110.599" gradientUnits="userSpaceOnUse">
<stop stop-color="#FFCA06"/>
<stop offset="0.48" stop-color="#FBDE8F"/>
<stop offset="1" stop-color="#FFCA06"/>
</linearGradient>
</defs>
</svg>
