<svg xmlns="http://www.w3.org/2000/svg" width="164" height="164" fill="none"><path d="m19.863 61.955-.786 2.57 1.12.71a2.53 2.53 0 0 0 .528.241c.235.07.334-.065.457-.464l.434.129-.587 1.83-.428-.129c.111-.37.035-.551-.411-.862l-6.506-4.382.241-.774 7.779-.246c.71 0 .868-.111.986-.487l.428.129-.774 2.546-.434-.129c.123-.428.088-.587-.123-.657a1.55 1.55 0 0 0-.475-.023h-1.449zm-.587 0-3.901.059v.029l3.232 2.118.669-2.206zm4.465-8.336 1.725 1.173-2.218 5.157-.416-.176c.328-.757.258-.886-.51-1.214l-5.186-2.235c-.768-.328-.886-.287-1.214.475l-.428-.188 1.279-2.933.428.182c-.352.798-.299.88.505 1.226l5.444 2.347c.452.194.522.141.633-.129l.645-1.484c.276-.634.211-.78-.921-1.619l.235-.581zm1.021-9.111 2.476 1.531-.293.475c-.927-.587-1.074-.522-1.338-.106l-.587 1.003 2.223 1.373c.722.452.827.452 1.355-.411l.387.24-1.76 2.857-.387-.241c.44-.71.387-.833-.317-1.267l-4.816-2.974c-.71-.446-.839-.411-1.267.287l-.399-.241 2.798-4.529 1.777.675-.305.493c-1.209-.393-1.367-.352-1.69.176l-.722 1.173c-.194.317-.135.387.282.645l2.346 1.437.587-.986c.264-.428.205-.587-.651-1.138l.299-.475zm5.35 1.543c.54-.727.487-.851-.176-1.337l-4.57-3.344c-.675-.499-.786-.499-1.314.223l-.375-.276 1.959-2.669.376.27c-.528.722-.499.845.176 1.338l4.558 3.344c.669.493.81.493 1.338-.229l.364.27-1.965 2.681-.369-.27zm-1.678-10.818a3.71 3.71 0 0 1 1.971-1.396 1.9 1.9 0 0 1 1.76.481 2.2 2.2 0 0 1 .37 2.933l3.121.651c.815.153 1.009.065 1.32-.276l.34.293-1.25 1.42-4.194-1.009-.528.587 1.842 1.613c.645.587.739.587 1.261 0l.346.299-2.077 2.346-.346-.293c.552-.634.522-.763-.106-1.32l-4.241-3.725c-.628-.551-.751-.551-1.302.076l-.352-.305 2.065-2.376zm.041.792c-.176.205-.106.299.346.692l2.077 1.83.44-.493c.727-.833.986-1.707-.094-2.658a1.68 1.68 0 0 0-.578-.368 1.683 1.683 0 0 0-.677-.107 1.71 1.71 0 0 0-.638.225 1.7 1.7 0 0 0-.5.455l-.375.422zm8.994 1.737-.299-.334c.633-.587.587-.698.053-1.314l-3.778-4.212c-.587-.622-.669-.645-1.302-.082l-.317-.34 2.464-2.212c.968-.868 1.76-1.173 2.693-1.173a4.533 4.533 0 0 1 2.933 1.672 4.83 4.83 0 0 1 1.431 2.986c0 .956-.375 1.871-1.549 2.933l-2.329 2.077zm-3.303-7.667c-.229.205-.211.311.111.669l4.071 4.535c.416.463.516.499.78.264l.311-.288c.874-.786 1.478-2.176-.528-4.417-1.59-1.76-3.021-2.311-4.282-1.173l-.463.411zm6.864-1.092c-1.361-1.965-1.76-4.142.464-5.655 2.382-1.654 4.288-.164 5.479 1.549 1.267 1.842 1.842 4.065-.487 5.673-2.135 1.472-3.995.546-5.456-1.566zm-.064-3.784c0 .692.311 1.613 1.244 2.968.845 1.22 2.382 3.045 3.966 1.954a1.88 1.88 0 0 0 .816-1.491 5.863 5.863 0 0 0-1.22-2.933c-.968-1.39-2.405-3.045-3.983-1.953a1.88 1.88 0 0 0-.821 1.449m9.576-.768c.458.886 1.238 2.059 2.681 1.314s.851-2.218.481-2.933l-1.93-3.696c-.393-.751-.505-.786-1.173-.452l-.211-.411 2.012-1.033.217.405c-.622.328-.651.446-.264 1.173l1.977 3.796c.437.677.591 1.499.428 2.288a2.57 2.57 0 0 1-1.431 1.543c-2.347 1.226-3.285 0-3.983-1.332l-1.942-3.725c-.387-.739-.487-.786-1.173-.434l-.211-.416 2.675-1.39.217.411c-.651.334-.681.428-.282 1.173l1.912 3.719zm5.967-2.118c.839 1.173 1.484 1.343 2.346.997a1.42 1.42 0 0 0 .5-.293 1.416 1.416 0 0 0 .351-1.602c-.34-.874-1.009-1.027-2.311-1.32-1.49-.317-2.382-.516-2.839-1.695-.329-.833-.141-2.171 1.678-2.886a5.084 5.084 0 0 1 1.76-.358l.88 1.555-.51.299c-.663-1.056-1.044-1.32-1.983-.95a1.19 1.19 0 0 0-.447.22 1.155 1.155 0 0 0-.315.386 1.19 1.19 0 0 0-.127.482 1.18 1.18 0 0 0 .084.491c.276.704.798.857 2.1 1.173.74.109 1.459.327 2.135.645.442.274.78.686.962 1.173.469 1.214-.065 2.581-1.801 3.256a6.59 6.59 0 0 1-1.989.399 12.54 12.54 0 0 0-.992-1.613l.516-.358zm16.056-.44a3.565 3.565 0 0 1-1.209.546c-.898.194-2.223.064-3.408-1.42-1.848.158-3.191-1.015-3.755-3.602-.51-2.347 0-4.494 2.581-5.051 2.833-.622 4.024 1.478 4.47 3.52.499 2.282 0 4.183-1.995 4.863.921 1.097 1.613 1.249 2.306 1.097a2.88 2.88 0 0 0 .915-.387l.094.434zm-6.975-8.002c-.288.633-.334 1.613 0 3.221.311 1.449 1.038 3.713 2.933 3.309.288-.061.557-.189.786-.373a1.87 1.87 0 0 0 .533-.688 5.94 5.94 0 0 0 0-3.174c-.364-1.654-1.056-3.725-2.933-3.32a1.81 1.81 0 0 0-.775.356 1.817 1.817 0 0 0-.527.671m9.088 2.932c.094.991.364 2.382 1.989 2.235s1.631-1.725 1.56-2.528l-.375-4.159c-.076-.845-.17-.915-.886-.851l-.035-.464 2.206-.194.041.458c-.692.07-.769.158-.692.991l.381 4.277a3.07 3.07 0 0 1-.475 2.27 2.59 2.59 0 0 1-1.889.862c-2.64.235-3.045-1.238-3.18-2.751l-.375-4.177c-.07-.833-.147-.927-.903-.857l-.047-.458 3.009-.276.047.469c-.733.064-.792.141-.722.991l.346 4.159zm9.972-.035-2.675-.07-.416 1.244a2.28 2.28 0 0 0-.129.557c0 .252.153.311.587.323v.452l-1.907-.047v-.458c.387 0 .534-.106.716-.628l2.493-7.45h.815l2.347 7.415c.205.686.34.815.733.827v.452l-2.663-.07v-.452c.446 0 .587-.076.587-.288a1.69 1.69 0 0 0-.082-.44l-.405-1.367zm-.164-.587-1.109-3.737h-.029l-1.173 3.684 2.311.053zm9.204 2.071-.663 1.983-5.567-.745.059-.452c.821.111.927 0 1.032-.821l.751-5.597c.112-.833.035-.933-.786-1.038l.065-.463 3.197.428-.064.458c-.862-.117-.927-.041-1.044.821l-.786 5.866c-.064.481 0 .54.299.587l1.602.205c.686.094.815 0 1.314-1.314l.593.082zm.2 1.713c.886.194.98.1 1.173-.71l1.214-5.526c.176-.821.129-.921-.745-1.115l.1-.452 3.238.71-.094.452c-.874-.188-.968-.123-1.173.698l-1.22 5.532c-.176.804-.129.933.751 1.12l-.1.446-3.25-.71.106-.446zm9.638-5.151-1.912 6.171c-.247.798-.229.915.721 1.214l-.129.434-3.32-1.032.135-.434c.939.293 1.026.217 1.273-.587l1.912-6.16-1.05-.328c-.645-.199-.763-.176-1.402 1.079l-.534-.158.857-1.871 5.925 1.836-.341 2.03-.533-.164c.176-1.42.088-1.496-.552-1.689l-1.05-.34zm4.417 6.089-.416-4.007c-.071-.768-.153-.915-.54-1.079l.188-.428 2.634 1.173-.182.422c-.405-.176-.587-.199-.681 0a1.55 1.55 0 0 0 0 .551l.264 3.156h.036l2.387-2.001a1.5 1.5 0 0 0 .411-.44c.07-.152-.047-.252-.393-.405l.193-.428 1.76.78-.176.422c-.387-.164-.528-.135-1.05.299l-3.162 2.54-.927 2.118c-.328.763-.305.898.558 1.273l-.182.416-3.133-1.373.182-.411c.874.381.98.305 1.308-.457l.921-2.124zm5.392 6.195c.71.458.833.399 1.279-.293l3.056-4.758c.458-.71.44-.827-.264-1.285l.252-.387 2.681 1.731c1.033.663 1.502 1.173 1.719 1.76.087.321.107.657.057.986a2.4 2.4 0 0 1-.345.925 2.41 2.41 0 0 1-.69.707c-.277.185-.589.31-.917.368-.657.065-1.373-.123-2.499-.851l-.633-.405-1.256 1.953c-.452.704-.463.821.37 1.349l-.241.381-2.816-1.807.247-.375zm4.628-1.572c1.174.757 1.96.493 2.599-.505.921-1.431-.076-2.165-.639-2.523l-.405-.264c-.2-.129-.288-.059-.587.405l-1.595 2.482.627.405zm8.753 1.215a3.77 3.77 0 0 1 1.478 1.912 1.92 1.92 0 0 1 .022.958 1.925 1.925 0 0 1-.444.849 2.2 2.2 0 0 1-2.887.475l-.533 3.15c-.124.816-.036 1.009.328 1.302l-.293.346-1.461-1.173.827-4.277-.616-.505-1.531 1.854c-.545.669-.545.763.065 1.267l-.288.346-2.434-1.983.281-.358c.651.534.786.493 1.314-.158l3.567-4.376c.528-.651.528-.774-.123-1.297l.293-.358 2.435 2.024zm-.786.065c-.211-.17-.299-.094-.681.37l-1.76 2.153.517.417c.856.698 1.759.921 2.645-.194a1.68 1.68 0 0 0 .434-1.267 1.754 1.754 0 0 0-.727-1.12l-.428-.358zm1.736 6.194c1.725-1.66 3.813-2.347 5.661-.452 2.012 2.088.845 4.212-.651 5.655-1.613 1.549-3.719 2.47-5.684.434-1.79-1.866-1.174-3.854.674-5.638zm3.725-.663c-.686.082-1.548.587-2.727 1.701-1.074 1.027-2.623 2.834-1.291 4.224a1.88 1.88 0 0 0 .728.484c.277.102.574.137.868.103a5.864 5.864 0 0 0 2.692-1.672c1.22-1.173 2.617-2.857 1.285-4.241a1.76 1.76 0 0 0-1.555-.586m-1.349 9.262.364-.27c.51.681.639.669 1.302.17l4.535-3.385c.669-.499.704-.587.193-1.291l.37-.276 1.977 2.646c.78 1.044 1.044 1.866.909 2.787a4.477 4.477 0 0 1-1.924 2.734 4.8 4.8 0 0 1-3.103 1.173c-.951-.076-1.831-.54-2.775-1.801l-1.848-2.487zm7.931-2.605c-.182-.241-.287-.235-.68.059l-4.875 3.649c-.499.364-.54.463-.329.745l.247.334c.71.944 2.041 1.672 4.458-.123 1.901-1.425 2.564-2.804 1.549-4.165l-.37-.499zm.288 9.304c-.868.493-2.006 1.32-1.203 2.734s2.247.757 2.934.358l3.631-2.071c.733-.416.763-.534.405-1.173l.404-.229 1.103 1.924-.404.229c-.347-.587-.47-.633-1.174-.217l-3.725 2.13a3.03 3.03 0 0 1-2.258.516 2.58 2.58 0 0 1-1.602-1.373c-1.32-2.294-.147-3.279 1.173-4.03l3.643-2.088c.734-.416.775-.516.393-1.173l.405-.229 1.502 2.628-.405.223c-.364-.628-.457-.657-1.173-.235l-3.649 2.077zm7.873 8.8c1.061-.722 1.689-1.173 1.208-2.27-.757-1.76-3.004-1.173-4.312-.587-2.587 1.103-3.156 2.528-2.728 3.555s1.59 1.173 2.417 1.062l.094.587c-1.877.241-2.786-.675-3.179-1.596-.869-2.036.052-3.743 2.745-4.898 2.587-1.103 4.523-.458 5.421 1.654a4.96 4.96 0 0 1 .398 1.948l-1.759 1.056-.305-.51zm3.543 5.062-6.189 1.865c-.804.246-.88.329-.587 1.285l-.434.129-1.003-3.326.434-.129c.282.939.399.962 1.173.716l6.183-1.86-.316-1.056c-.194-.651-.276-.733-1.678-.551l-.164-.546 2.029-.328 1.813 5.913-1.871.851-.165-.528c1.273-.651 1.285-.774 1.092-1.414l-.317-1.021zM140.183 82a58.19 58.19 0 0 1-35.913 53.758 58.183 58.183 0 0 1-33.617 3.313 58.18 58.18 0 0 1-29.792-15.922 58.185 58.185 0 0 1-12.615-63.407 58.19 58.19 0 0 1 21.429-26.113A58.177 58.177 0 0 1 82 23.823a58.19 58.19 0 0 1 58.183 58.183" fill="#491819"/><mask id="a" maskUnits="userSpaceOnUse" x="27" y="27" width="110" height="110"><path d="M27.12 82a54.88 54.88 0 0 0 33.882 50.698 54.88 54.88 0 0 0 31.708 3.121 54.884 54.884 0 0 0 28.098-15.021 54.88 54.88 0 0 0 11.894-59.807A54.88 54.88 0 0 0 82 27.114 54.94 54.94 0 0 0 27.12 82z" fill="#fff"/></mask><g mask="url(#a)"><path d="M136.886 27.114H27.12V136.88h109.766V27.114z" fill="url(#b)"/></g><path d="M82 135.525a53.53 53.53 0 0 1-29.737-9.021 53.525 53.525 0 1 1 83.26-44.503A53.59 53.59 0 0 1 82 135.525z" fill="#711312"/><path d="M82 132.163a50.157 50.157 0 0 1-46.328-30.983 50.16 50.16 0 0 1-2.845-28.981 50.164 50.164 0 0 1 68.399-36.541 50.16 50.16 0 0 1 22.508 18.476 50.166 50.166 0 0 1 8.453 27.867 50.226 50.226 0 0 1-14.71 35.454 50.22 50.22 0 0 1-35.453 14.709" fill="#d7a429"/><path d="M82 128.157a46.16 46.16 0 0 1-25.643-7.779 46.16 46.16 0 0 1-17-20.715A46.16 46.16 0 0 1 72.995 36.73a46.152 46.152 0 0 1 26.668 2.627A46.16 46.16 0 0 1 128.156 82 46.21 46.21 0 0 1 82 128.157z" fill="#491819"/><mask id="c" maskUnits="userSpaceOnUse" x="36" y="36" width="92" height="92"><path d="M36.847 82a45.17 45.17 0 0 0 27.885 41.733 45.18 45.18 0 0 0 26.099 2.57 45.17 45.17 0 0 0 35.491-35.491 45.17 45.17 0 0 0-2.571-26.099 45.165 45.165 0 0 0-16.637-20.272 45.17 45.17 0 0 0-25.095-7.613A45.2 45.2 0 0 0 36.847 82z" fill="#fff"/></mask><g mask="url(#c)"><path d="M55.908-.01 0 108.079l108.089 55.908 55.908-108.088L55.908-.01z" fill="url(#d)"/></g><path d="M116.195 57.402c-.434-.493-12.947-14.431-40.918-11.657 0 0 8.506-4.153 26.628-.88a42.13 42.13 0 0 0-26.901-4.446 42.129 42.129 0 0 0-35.017 37.894 42.129 42.129 0 0 0 6.551 26.466c.047.053 13.581 14.995 42.003 12.173 0 0-10.143 5.28-29.948.105a42.12 42.12 0 0 0 53.72-5.744 42.122 42.122 0 0 0 3.876-53.887" fill="#491819"/><path d="m71.177 81.026 1.596 8.753-3.625.974v1.062h11.938v-1.173l-3.097-.798s-3.625-10.078-5.925-27.413l-4.153 1.062-.088.886s-11.856 22.726-14.414 25.29l-3.52.974v1.173h10.788v-1.173l-3.361-.798 4.153-8.841 9.709.023zm-2.933-13.264 2.564 11.41h-8.929l6.365-11.41zm29.454 4.165s-4.511 1.144-6.729.352l2.129-9.82s1.502-5.479 7.785-2.03c0 0 2.827-3.889-2.394-4.153-6.101 1.238-10.166 8.483-11.668 16.003 0 0-4.159 1.056-4.335 3.18a9.42 9.42 0 0 1 4.153-.974s-2.3 26.71-7.961 29.273c-6.013 3.802-11.733-1.173-11.733-1.173s-3.097 5.039 3.889 5.127 13-4.775 16.091-12.29c2.153-7.626 3.807-20.691 3.807-20.691h3.18s3.52-.71 3.807-2.828m11.917 27.25c.704-5.655 2.828-20.532 4.506-27.853h-5.573a17.477 17.477 0 0 0-9.551 5.837C95.041 82 94.507 92.788 97.522 91.803c2.933-.352 6.717-3.004 10.431-9.814 0 0-2.212 20.069-4.512 23.255 0 0-4.071.709-4.153 2.035 0 0 8.213-1.414 13.44-.968v-1.067h-6.101s2.294-.44 3.009-6.102m-8.846-10.7c-2.828 1.326-.264-13 4.376-14.414h4.382s-3.097 12.378-8.758 14.414z" fill="#d9ac28"/><g fill="#491819"><path d="M148.419 35.744v-8.167h3.827a5.27 5.27 0 0 1 1.755.222c.405.146.745.42.962.775a2.25 2.25 0 0 1 .361 1.235c.011.272-.034.543-.133.799a2.05 2.05 0 0 1-.447.689 3.113 3.113 0 0 1-1.842.759 2.86 2.86 0 0 1 .694.408 5.59 5.59 0 0 1 .946 1.085l1.503 2.221h-1.432l-1.148-1.694a13.46 13.46 0 0 0-.826-1.131 2.3 2.3 0 0 0-.585-.517 1.747 1.747 0 0 0-.519-.222 3.54 3.54 0 0 0-.634-.036h-1.323v3.616l-1.159-.041zm1.148-4.561h2.444a3.83 3.83 0 0 0 1.224-.155c.28-.094.518-.276.673-.517a1.27 1.27 0 0 0 .229-.728 1.15 1.15 0 0 0-.11-.525 1.22 1.22 0 0 0-.338-.43 2.157 2.157 0 0 0-1.4-.372h-2.733l.011 2.727z"/><path d="M151.774 38.7a7.43 7.43 0 0 1-4.126-1.252 7.427 7.427 0 0 1-3.158-7.624 7.43 7.43 0 0 1 5.836-5.835 7.43 7.43 0 0 1 4.291.423 7.427 7.427 0 0 1 2.409 12.113 7.43 7.43 0 0 1-5.252 2.175zm0-14.179a6.76 6.76 0 0 0-3.755 1.139c-1.111.743-1.977 1.799-2.489 3.034s-.645 2.594-.383 3.905a6.762 6.762 0 0 0 5.313 5.308 6.76 6.76 0 0 0 3.905-.387 6.75 6.75 0 0 0 3.031-2.492 6.76 6.76 0 0 0 1.137-3.756 6.77 6.77 0 0 0-1.984-4.773 6.765 6.765 0 0 0-4.775-1.979z"/></g><defs><linearGradient id="b" x1="22.375" y1="81.515" x2="143.893" y2="81.515" gradientUnits="userSpaceOnUse"><stop stop-color="#ffca06"/><stop offset=".48" stop-color="#fbde8f"/><stop offset="1" stop-color="#ffca06"/></linearGradient><linearGradient id="d" x1="39.249" y1="59.497" x2="134.179" y2="108.599" gradientUnits="userSpaceOnUse"><stop stop-color="#ffca06"/><stop offset=".48" stop-color="#fbde8f"/><stop offset="1" stop-color="#ffca06"/></linearGradient></defs></svg>