<svg width="164" height="164" viewBox="0 0 164 164" fill="none" xmlns="http://www.w3.org/2000/svg">
<path d="M19.8633 61.9546L19.0772 64.5241L20.1977 65.2339C20.3639 65.3341 20.5411 65.4148 20.7257 65.4745C20.9603 65.5449 21.0601 65.4099 21.1832 65.011L21.6174 65.1401L21.0307 66.9704L20.6025 66.8413C20.7139 66.4717 20.6377 66.2899 20.1918 65.979L13.686 61.5968L13.9266 60.8224L21.7053 60.576C22.4152 60.576 22.5736 60.4646 22.6909 60.0891L23.1191 60.2182L22.3448 62.7642L21.9107 62.6351C22.0339 62.2069 21.9987 62.0485 21.7875 61.9781C21.6312 61.9459 21.471 61.9379 21.3123 61.9546H19.8633ZM19.2767 61.9546L15.3755 62.0133V62.0426L18.6079 64.1604L19.2767 61.9546Z" fill="#491819"/>
<path d="M23.7413 53.6185L25.466 54.7918L23.2485 59.9483L22.832 59.7723C23.1605 59.0156 23.0901 58.8865 22.3216 58.558L17.1357 56.3229C16.3672 55.9944 16.2499 56.0355 15.9214 56.7981L15.4932 56.6104L16.772 53.6772L17.2003 53.8591C16.8483 54.6569 16.9011 54.739 17.7048 55.0851L23.1488 57.4317C23.6005 57.6253 23.6709 57.5725 23.7823 57.3026L24.4276 55.8184C24.7033 55.1848 24.6388 55.0382 23.5066 54.1993L23.7413 53.6185Z" fill="#491819"/>
<path d="M24.762 44.5081L27.2376 46.0392L26.9443 46.5144C26.0174 45.9277 25.8707 45.9923 25.6067 46.4088L25.0201 47.4119L27.2434 48.7847C27.965 49.2364 28.0706 49.2364 28.5986 48.374L28.9858 48.6145L27.2258 51.4715L26.8387 51.2309C27.2786 50.5211 27.2258 50.3979 26.5219 49.9638L21.7056 46.9896C20.9958 46.5437 20.8667 46.5789 20.4385 47.277L20.0396 47.0365L22.8378 42.5077L24.6153 43.1823L24.3103 43.6751C23.1018 43.282 22.9434 43.3231 22.6208 43.8511L21.8992 45.0243C21.7056 45.3411 21.7643 45.4115 22.1808 45.6696L24.5273 47.1069L25.114 46.1213C25.3779 45.6931 25.3193 45.5347 24.4628 44.9833L24.762 44.5081Z" fill="#491819"/>
<path d="M30.1122 46.0509C30.6519 45.3235 30.5991 45.2003 29.9362 44.7134L25.3663 41.3696C24.6916 40.8709 24.5802 40.8709 24.0522 41.5925L23.6768 41.3168L25.6361 38.6476L26.0116 38.9174C25.4836 39.639 25.5129 39.7622 26.1876 40.255L30.7457 43.5988C31.4145 44.0916 31.5553 44.0916 32.0833 43.37L32.447 43.6399L30.4817 46.3208L30.1122 46.0509Z" fill="#491819"/>
<path d="M28.4341 35.2334C28.9172 34.5613 29.6109 34.0699 30.4052 33.8372C30.7153 33.7633 31.0391 33.7687 31.3466 33.8527C31.6542 33.9368 31.9356 34.0969 32.1651 34.3182C32.58 34.6739 32.8477 35.1712 32.9161 35.7135C32.9844 36.2557 32.8484 36.8039 32.5347 37.2514L35.6556 37.9026C36.471 38.0551 36.6646 37.9671 36.9755 37.6268L37.3158 37.9202L36.0662 39.3398L31.8718 38.3308L31.3438 38.9174L33.1858 40.5307C33.8311 41.1173 33.925 41.1173 34.4471 40.5307L34.7932 40.8299L32.7165 43.1764L32.3704 42.8831C32.9219 42.2495 32.8925 42.1205 32.2648 41.5632L28.0235 37.838C27.3958 37.2866 27.2726 37.2866 26.7211 37.9143L26.3691 37.6092L28.4341 35.2334ZM28.4752 36.0253C28.2992 36.2306 28.3696 36.3245 28.8213 36.7175L30.898 38.5479L31.3379 38.0551C32.0654 37.2221 32.3235 36.348 31.2441 35.3976C31.0786 35.2366 30.8818 35.1113 30.6658 35.0295C30.4498 34.9478 30.2193 34.9113 29.9887 34.9224C29.7632 34.9542 29.5463 35.0308 29.3509 35.1477C29.1554 35.2645 28.9853 35.4193 28.8506 35.6029L28.4752 36.0253Z" fill="#491819"/>
<path d="M37.4686 37.7618L37.1695 37.4274C37.803 36.8407 37.7561 36.7293 37.2223 36.1133L33.4443 31.9013C32.8577 31.2794 32.7755 31.256 32.142 31.8191L31.8252 31.4789L34.2891 29.2673C35.257 28.399 36.049 28.094 36.9817 28.094C38.1382 28.253 39.1888 28.8518 39.9149 29.7659C40.7287 30.5617 41.2356 31.6191 41.3463 32.7519C41.3463 33.7081 40.9709 34.6233 39.7976 35.6851L37.4686 37.7618ZM34.1659 30.0944C33.9371 30.2997 33.9547 30.4053 34.2773 30.7632L38.3486 35.2979C38.7651 35.7613 38.8648 35.7965 39.1288 35.5619L39.4397 35.2744C40.3138 34.4883 40.9181 33.098 38.9118 30.857C37.322 29.0971 35.8906 28.5457 34.6293 29.6838L34.1659 30.0944Z" fill="#491819"/>
<path d="M41.0295 29.0033C39.6685 27.0381 39.2696 24.8616 41.493 23.3481C43.8747 21.6938 45.7813 23.1839 46.9721 24.8968C48.2393 26.7389 48.8142 28.9622 46.4852 30.5696C44.3499 32.0421 42.4902 31.1152 41.0295 29.0033ZM40.965 25.2195C40.965 25.9117 41.2759 26.8327 42.2086 28.1879C43.0534 29.4081 44.5904 31.2325 46.1743 30.1414C46.4178 29.9746 46.6185 29.7527 46.7602 29.4938C46.9019 29.2349 46.9805 28.9463 46.9897 28.6513C46.8605 27.58 46.4383 26.565 45.7695 25.7181C44.8016 24.3278 43.3643 22.6735 41.7863 23.7646C41.5471 23.9267 41.3486 24.1417 41.2061 24.3931C41.0637 24.6444 40.9812 24.9252 40.965 25.2136" fill="#491819"/>
<path d="M50.5444 24.4451C51.002 25.331 51.7822 26.5042 53.2254 25.7592C54.6685 25.0142 54.076 23.5417 53.7064 22.826L51.7764 19.1302C51.3833 18.3793 51.2719 18.3441 50.6031 18.6785L50.3919 18.2679L52.4041 17.2354L52.6211 17.6402C51.9993 17.9687 51.97 18.086 52.3572 18.8134L54.3341 22.609C54.7712 23.286 54.925 24.1076 54.7624 24.8969C54.6462 25.2405 54.4586 25.5556 54.2119 25.8216C53.9652 26.0875 53.6649 26.2981 53.331 26.4397C50.9844 27.6658 50.0458 26.4397 49.3477 25.108L47.4059 21.3829C47.0188 20.6437 46.919 20.5968 46.2327 20.9488L46.0215 20.5323L48.6965 19.1419L48.9136 19.5526C48.2624 19.887 48.2331 19.9808 48.632 20.7259L50.5444 24.4451Z" fill="#491819"/>
<path d="M56.5105 22.3274C57.3494 23.5006 57.9947 23.6708 58.857 23.3247C59.042 23.2626 59.2121 23.1629 59.3566 23.0319C59.5012 22.9008 59.617 22.7413 59.6969 22.5634C59.7768 22.3854 59.819 22.1928 59.8209 21.9977C59.8227 21.8026 59.7842 21.6093 59.7076 21.4298C59.3674 20.5557 58.6986 20.4032 57.3963 20.1099C55.9062 19.7931 55.0146 19.5936 54.557 18.4145C54.2285 17.5815 54.4162 16.244 56.2348 15.5283C56.7955 15.3055 57.3915 15.1844 57.9947 15.1704C58.2059 15.5811 58.5285 16.156 58.8746 16.725L58.3643 17.0242C57.7014 15.9682 57.32 15.7042 56.3814 16.0738C56.2185 16.1145 56.0663 16.1896 55.9349 16.2941C55.8036 16.3986 55.6962 16.5301 55.62 16.6797C55.5438 16.8293 55.5006 16.9935 55.4933 17.1612C55.486 17.3289 55.5148 17.4962 55.5777 17.6519C55.8535 18.3558 56.3756 18.5084 57.6779 18.8252C58.4175 18.9344 59.1369 19.1519 59.8132 19.4705C60.255 19.7442 60.5934 20.1569 60.7753 20.6437C61.2446 21.8581 60.7108 23.2249 58.9744 23.8996C58.336 24.1344 57.6652 24.269 56.9857 24.2985C56.6963 23.7365 56.3649 23.1972 55.9942 22.6852L56.5105 22.3274Z" fill="#491819"/>
<path d="M72.5669 21.8874C72.2016 22.1431 71.7917 22.3281 71.3584 22.433C70.4609 22.6266 69.1351 22.4975 67.9501 21.0133C66.1021 21.1717 64.7588 19.9984 64.1956 17.4114C63.6852 15.0648 64.1956 12.9177 66.7768 12.3604C69.6102 11.7386 70.8011 13.8388 71.2469 15.8802C71.7456 18.1623 71.2469 20.063 69.2524 20.7435C70.1734 21.8405 70.8656 21.993 71.5579 21.8405C71.8831 21.7655 72.1928 21.6345 72.473 21.4533L72.5669 21.8874ZM65.5918 13.8857C65.3043 14.5192 65.2574 15.4989 65.5918 17.1063C65.9027 18.5553 66.6301 20.8197 68.525 20.4149C68.8128 20.3538 69.0822 20.2258 69.3115 20.0414C69.5408 19.8569 69.7235 19.6212 69.8449 19.3531C70.1326 18.3148 70.1326 17.2178 69.8449 16.1794C69.4812 14.5251 68.7889 12.4543 66.9117 12.8591C66.6286 12.9142 66.3628 13.0362 66.1363 13.2147C65.9098 13.3933 65.7291 13.6233 65.6094 13.8857" fill="#491819"/>
<path d="M74.6966 16.8189C74.7904 17.8103 75.0603 19.2006 76.6853 19.054C78.3102 18.9073 78.3161 17.3292 78.2457 16.5255L77.8703 12.3663C77.794 11.5215 77.7001 11.4511 76.9844 11.5157L76.9492 11.0522L79.155 10.8586L79.1961 11.3162C78.5038 11.3866 78.4276 11.4746 78.5038 12.3076L78.8851 16.5842C79.0299 17.374 78.8593 18.1891 78.41 18.8545C78.1717 19.1209 77.8809 19.3351 77.5558 19.4835C77.2307 19.6319 76.8783 19.7114 76.521 19.7168C73.8811 19.9515 73.4764 18.479 73.3414 16.9655L72.966 12.7887C72.8956 11.9557 72.8193 11.8618 72.0626 11.9322L72.0156 11.4746L75.0251 11.1989L75.072 11.6682C74.3387 11.7327 74.28 11.809 74.3504 12.6596L74.6966 16.8189Z" fill="#491819"/>
<path d="M84.669 16.7837L81.9939 16.7133L81.5774 17.9569C81.5111 18.1365 81.4678 18.3238 81.4483 18.5142C81.4483 18.7665 81.6009 18.8252 82.035 18.8369V19.2886L80.1284 19.2417V18.7841C80.5156 18.7841 80.6623 18.6785 80.8441 18.1564L83.3373 10.7061H84.1527L86.4993 18.1212C86.7046 18.8076 86.8395 18.9366 87.2326 18.9484V19.4001L84.5693 19.3297V18.878C85.0151 18.878 85.1559 18.8017 85.1559 18.5905C85.1482 18.4409 85.1205 18.2929 85.0738 18.1505L84.669 16.7837ZM84.5047 16.197L83.396 12.4602H83.3667L82.1934 16.1442L84.5047 16.197Z" fill="#491819"/>
<path d="M93.7091 18.2679L93.0462 20.2507L87.479 19.5057L87.5377 19.054C88.359 19.1654 88.4646 19.054 88.5701 18.2327L89.321 12.6362C89.4325 11.8031 89.3562 11.7034 88.535 11.5978L88.5995 11.1344L91.7966 11.5626L91.7321 12.0202C90.8698 11.9029 90.8052 11.9791 90.6879 12.8415L89.9018 18.7078C89.8373 19.1889 89.9018 19.2475 90.201 19.2945L91.8025 19.4998C92.4889 19.5937 92.6179 19.4998 93.1166 18.1857L93.7091 18.2679Z" fill="#491819"/>
<path d="M93.9088 19.9808C94.7946 20.1744 94.8885 20.0805 95.0821 19.271L96.2964 13.7449C96.4724 12.9236 96.4255 12.8239 95.5514 12.6303L95.6511 12.1786L98.8894 12.8884L98.7955 13.3401C97.9214 13.1524 97.8275 13.2169 97.6222 14.0382L96.402 19.5702C96.226 20.3739 96.273 20.5029 97.1529 20.6906L97.0532 21.1365L93.8032 20.4267L93.9088 19.9808Z" fill="#491819"/>
<path d="M103.547 14.8302L101.635 21.0016C101.388 21.7994 101.406 21.9167 102.356 22.2159L102.227 22.65L98.9067 21.6176L99.0417 21.1834C99.9803 21.4768 100.068 21.4005 100.315 20.5968L102.227 14.4371L101.177 14.1086C100.532 13.9092 100.414 13.9326 99.775 15.188L99.2411 15.0296L100.098 13.1583L106.023 14.9944L105.682 17.0242L105.149 16.8599C105.325 15.4403 105.237 15.364 104.597 15.1704L103.547 14.8302Z" fill="#491819"/>
<path d="M107.964 20.9194L107.548 16.9127C107.477 16.1442 107.395 15.9976 107.008 15.8333L107.196 15.4051L109.83 16.5783L109.648 17.0007C109.243 16.8247 109.061 16.8013 108.967 17.0007C108.934 17.183 108.934 17.3699 108.967 17.5521L109.231 20.7083H109.267L111.654 18.7078C111.819 18.5904 111.959 18.4407 112.065 18.2678C112.135 18.1153 112.018 18.0156 111.672 17.8631L111.865 17.4348L113.625 18.215L113.449 18.6374C113.062 18.4732 112.921 18.5025 112.399 18.9366L109.237 21.4767L108.31 23.5945C107.982 24.3571 108.005 24.4921 108.868 24.8675L108.686 25.284L105.553 23.9113L105.735 23.5006C106.609 23.8819 106.715 23.8057 107.043 23.0431L107.964 20.9194Z" fill="#491819"/>
<path d="M113.356 27.1143C114.066 27.5719 114.189 27.5132 114.635 26.821L117.691 22.0634C118.149 21.3536 118.131 21.2362 117.427 20.7787L117.679 20.3915L120.36 22.1221C121.393 22.785 121.862 23.2953 122.079 23.882C122.166 24.2031 122.186 24.5389 122.136 24.8679C122.087 25.197 121.969 25.5121 121.791 25.7931C121.612 26.0741 121.377 26.3148 121.101 26.4999C120.824 26.6849 120.512 26.8103 120.184 26.8679C119.527 26.9325 118.811 26.7447 117.685 26.0173L117.052 25.6125L115.796 27.566C115.344 28.27 115.333 28.3873 116.166 28.9153L115.925 29.2966L113.109 27.4898L113.356 27.1143ZM117.984 25.5421C119.158 26.2989 119.944 26.0349 120.583 25.0376C121.504 23.6062 120.507 22.8729 119.944 22.5151L119.539 22.2511C119.339 22.1221 119.251 22.1925 118.952 22.6559L117.357 25.1374L117.984 25.5421Z" fill="#491819"/>
<path d="M126.737 26.7565C127.426 27.2142 127.946 27.8863 128.215 28.6689C128.303 28.9812 128.311 29.3108 128.237 29.6268C128.163 29.9428 128.01 30.2349 127.793 30.4757C127.454 30.8949 126.972 31.1749 126.44 31.2625C125.908 31.3501 125.362 31.2392 124.906 30.9509L124.373 34.1011C124.249 34.9166 124.337 35.1102 124.701 35.4035L124.408 35.7496L122.947 34.5763L123.774 30.2997L123.158 29.7952L121.627 31.649C121.082 32.3178 121.082 32.4116 121.692 32.9161L121.404 33.2623L118.97 31.2794L119.251 30.9216C119.902 31.4554 120.037 31.4144 120.565 30.7632L124.132 26.3869C124.66 25.7357 124.66 25.6125 124.009 25.0904L124.302 24.7326L126.737 26.7565ZM125.951 26.821C125.74 26.6509 125.652 26.7271 125.27 27.1906L123.51 29.3435L124.027 29.76C124.883 30.4581 125.786 30.6811 126.672 29.5665C126.827 29.396 126.946 29.1957 127.02 28.9777C127.095 28.7598 127.124 28.529 127.106 28.2993C127.021 27.8447 126.759 27.4422 126.379 27.1788L125.951 26.821Z" fill="#491819"/>
<path d="M127.687 33.0159C129.412 31.3557 131.5 30.6693 133.348 32.5642C135.36 34.6526 134.193 36.7762 132.697 38.2193C131.084 39.7681 128.978 40.6891 127.013 38.6535C125.223 36.788 125.839 34.7993 127.687 33.0159ZM131.412 32.353C130.726 32.4351 129.864 32.9396 128.685 34.0542C127.611 35.0808 126.062 36.8877 127.394 38.278C127.595 38.4941 127.845 38.6597 128.122 38.7616C128.399 38.8635 128.696 38.8988 128.99 38.8646C130.024 38.565 130.955 37.9865 131.682 37.1927C132.902 36.0195 134.299 34.3358 132.967 32.9514C132.776 32.7331 132.534 32.5654 132.263 32.463C131.992 32.3607 131.7 32.3269 131.412 32.3647" fill="#491819"/>
<path d="M130.063 41.6277L130.427 41.3578C130.937 42.0383 131.066 42.0266 131.729 41.528L136.264 38.1431C136.933 37.6444 136.968 37.5564 136.457 36.8525L136.827 36.5768L138.804 39.2225C139.584 40.2667 139.848 41.088 139.713 42.009C139.449 43.1346 138.759 44.1142 137.789 44.7427C136.927 45.4903 135.827 45.9063 134.686 45.916C133.735 45.8397 132.855 45.3763 131.911 44.115L130.063 41.6277ZM137.994 39.023C137.812 38.7825 137.707 38.7884 137.314 39.0817L132.439 42.7306C131.94 43.0943 131.899 43.194 132.11 43.4756L132.357 43.81C133.067 44.7545 134.398 45.4819 136.815 43.6868C138.716 42.2613 139.379 40.8827 138.364 39.5217L137.994 39.023Z" fill="#491819"/>
<path d="M138.282 48.3271C137.414 48.8199 136.276 49.647 137.079 51.0608C137.883 52.4746 139.326 51.8176 140.013 51.4187L143.644 49.3478C144.377 48.9313 144.407 48.814 144.049 48.1746L144.453 47.9458L145.556 49.8699L145.152 50.0987C144.805 49.5121 144.682 49.4652 143.978 49.8817L140.253 52.0112C139.598 52.4753 138.786 52.661 137.995 52.5274C137.646 52.4243 137.323 52.2487 137.047 52.0121C136.771 51.7755 136.548 51.4834 136.393 51.1547C135.073 48.8609 136.246 47.8754 137.566 47.1245L141.209 45.0361C141.943 44.6196 141.984 44.5198 141.602 43.8628L142.007 43.634L143.509 46.2621L143.104 46.4851C142.74 45.8574 142.647 45.828 141.931 46.2504L138.282 48.3271Z" fill="#491819"/>
<path d="M146.155 57.1266C147.216 56.4051 147.844 55.9534 147.363 54.8563C146.606 53.0964 144.359 53.6831 143.051 54.2697C140.464 55.3726 139.895 56.7981 140.323 57.8247C140.752 58.8513 141.913 58.998 142.74 58.8865L142.834 59.4732C140.957 59.7137 140.048 58.7985 139.655 57.8775C138.786 55.8419 139.707 54.1348 142.4 52.9791C144.987 51.8762 146.923 52.5215 147.821 54.6334C148.084 55.2491 148.219 55.9116 148.219 56.5811C147.633 56.8978 147.046 57.2674 146.46 57.637L146.155 57.1266Z" fill="#491819"/>
<path d="M149.698 62.1893L143.509 64.0548C142.705 64.3012 142.629 64.3833 142.922 65.3395L142.488 65.4686L141.485 62.1424L141.919 62.0133C142.201 62.9519 142.318 62.9754 143.092 62.729L149.275 60.8693L148.959 59.8134C148.765 59.1622 148.683 59.0801 147.281 59.262L147.117 58.7164L149.146 58.3879L150.959 64.3012L149.088 65.1518L148.923 64.6238C150.196 63.9727 150.208 63.8495 150.015 63.21L149.698 62.1893Z" fill="#491819"/>
<path d="M140.183 82C140.184 93.5077 136.772 104.757 130.38 114.326C123.987 123.895 114.901 131.353 104.27 135.758C93.6382 140.162 81.9394 141.316 70.6527 139.071C59.366 136.827 48.9983 131.286 40.8608 123.149C32.7232 115.012 27.1813 104.645 24.9358 93.3589C22.6903 82.0724 23.8422 70.3735 28.2457 59.7417C32.6493 49.1099 40.1067 40.0227 49.6749 33.6292C59.2431 27.2358 70.4923 23.8233 82 23.8233C97.4305 23.8249 112.229 29.9553 123.14 40.8663C134.051 51.7773 140.181 66.5754 140.183 82.0059" fill="#491819"/>
<mask id="mask0_1_12087" style="mask-type:luminance" maskUnits="userSpaceOnUse" x="27" y="27" width="110" height="110">
<path d="M27.1201 82C27.1213 92.8539 30.3409 103.464 36.3719 112.488C42.4029 121.512 50.9743 128.545 61.0024 132.698C71.0305 136.851 82.0648 137.937 92.71 135.819C103.355 133.701 113.133 128.473 120.808 120.798C128.482 113.123 133.709 103.344 135.826 92.6985C137.943 82.053 136.856 71.0188 132.702 60.9912C128.548 50.9635 121.514 42.3928 112.489 36.3628C103.464 30.3328 92.8539 27.1143 81.9999 27.1143C67.4486 27.1299 53.4979 32.9176 43.2091 43.2075C32.9204 53.4973 27.1341 67.4487 27.1201 82Z" fill="white"/>
</mask>
<g mask="url(#mask0_1_12087)">
<path d="M136.886 27.1143H27.1201V136.88H136.886V27.1143Z" fill="url(#paint0_linear_1_12087)"/>
</g>
<path d="M81.9998 135.525C71.4136 135.525 61.0652 132.385 52.2631 126.504C43.461 120.623 36.6006 112.263 32.5494 102.483C28.4983 92.7026 27.4383 81.9406 29.5036 71.5578C31.5688 61.1751 36.6666 51.6379 44.1521 44.1523C51.6377 36.6668 61.1749 31.569 71.5577 29.5038C81.9404 27.4385 92.7025 28.4985 102.483 32.5496C112.263 36.6008 120.623 43.4612 126.504 52.2633C132.385 61.0654 135.524 71.4138 135.524 82C135.507 96.1904 129.863 109.795 119.829 119.829C109.794 129.863 96.1902 135.508 81.9998 135.525Z" fill="#711312"/>
<path d="M82.0002 132.163C72.0798 132.159 62.3836 129.213 54.1373 123.698C45.8911 118.183 39.4652 110.347 35.6721 101.18C31.879 92.0139 30.8889 81.9284 32.8271 72.1993C34.7653 62.4701 39.5448 53.5341 46.5611 46.5209C53.5775 39.5078 62.5158 34.7326 72.2459 32.7989C81.976 30.8653 92.0609 31.86 101.226 35.6575C110.39 39.4549 118.224 45.8844 123.734 54.1332C129.245 62.382 132.187 72.0797 132.187 82C132.171 95.2994 126.881 108.05 117.477 117.454C108.073 126.858 95.323 132.148 82.0236 132.163" fill="#D7A429"/>
<path d="M81.9998 128.157C72.8709 128.157 63.947 125.449 56.3566 120.378C48.7662 115.306 42.8502 108.097 39.3567 99.6633C35.8633 91.2293 34.9492 81.9488 36.7302 72.9953C38.5111 64.0418 42.9071 55.8175 49.3622 49.3624C55.8173 42.9073 64.0416 38.5113 72.9951 36.7304C81.9486 34.9494 91.2292 35.8634 99.6632 39.3569C108.097 42.8504 115.306 48.7664 120.378 56.3568C125.449 63.9472 128.156 72.8711 128.156 82C128.142 94.2372 123.275 105.969 114.622 114.622C105.969 123.275 94.237 128.143 81.9998 128.157Z" fill="#491819"/>
<mask id="mask1_1_12087" style="mask-type:luminance" maskUnits="userSpaceOnUse" x="36" y="36" width="92" height="92">
<path d="M36.8467 82C36.8467 90.934 39.4959 99.6673 44.4594 107.096C49.4228 114.524 56.4776 120.314 64.7315 123.733C72.9854 127.151 82.0678 128.046 90.8301 126.303C99.5924 124.56 107.641 120.258 113.958 113.941C120.276 107.623 124.578 99.5747 126.321 90.8124C128.064 82.0501 127.169 72.9677 123.75 64.7138C120.331 56.4599 114.542 49.4051 107.113 44.4417C99.685 39.4782 90.9516 36.829 82.0177 36.829C70.04 36.8368 58.5551 41.5984 50.0855 50.0679C41.616 58.5374 36.8544 70.0223 36.8467 82Z" fill="white"/>
</mask>
<g mask="url(#mask1_1_12087)">
<path d="M55.9082 -0.00958697L0 108.079L108.089 163.987L163.997 55.8987L55.9082 -0.00958697Z" fill="url(#paint1_linear_1_12087)"/>
</g>
<path d="M116.195 57.4024C115.761 56.9096 103.248 42.9711 75.2771 45.7459C75.2771 45.7459 83.7833 41.5925 101.905 44.8659C93.6786 40.4428 84.2161 38.8787 75.0044 40.4195C65.7927 41.9602 57.3542 46.5185 51.0155 53.3778C44.6767 60.237 40.7971 69.0083 39.9866 78.3127C39.1761 87.6171 41.4806 96.9271 46.5378 104.779C46.5847 104.832 60.1184 119.774 88.5409 116.952C88.5409 116.952 78.398 122.232 58.5932 117.057C66.8004 122.549 76.6763 124.982 86.4954 123.932C96.3145 122.882 105.453 118.416 112.313 111.313C119.173 104.21 123.32 94.9222 124.029 85.0726C124.737 75.2229 121.962 65.4375 116.189 57.4258" fill="#491819"/>
<path d="M71.1767 81.0262L72.7724 89.7788L69.147 90.7526V91.8144H81.085V90.6411L77.9876 89.8433C77.9876 89.8433 74.3622 79.7649 72.0625 62.4298L67.9092 63.4916L67.8212 64.3774C67.8212 64.3774 55.9652 87.1037 53.4075 89.6673L49.8877 90.6411V91.8144H60.6759V90.6411L57.3145 89.8433L61.4679 81.0027L71.1767 81.0262ZM68.2435 67.7623L70.8071 79.1724H61.8785L68.2435 67.7623Z" fill="#D9AC28"/>
<path d="M97.6983 71.9274C97.6983 71.9274 93.187 73.0714 90.9696 72.2794L93.099 62.4591C93.099 62.4591 94.6008 56.98 100.884 60.4294C100.884 60.4294 103.711 56.54 98.4902 56.276C92.3892 57.5138 88.3238 64.7588 86.822 72.2794C86.822 72.2794 82.6628 73.3354 82.4868 75.459C83.7786 74.8211 85.1995 74.488 86.6402 74.4852C86.6402 74.4852 84.3406 101.195 78.6795 103.758C72.6665 107.56 66.9468 102.585 66.9468 102.585C66.9468 102.585 63.8494 107.624 70.8362 107.712C77.823 107.8 83.8361 102.937 86.9276 95.4222C89.0806 87.796 90.7349 74.7316 90.7349 74.7316H93.9145C93.9145 74.7316 97.4343 74.0217 97.7217 71.904" fill="#D9AC28"/>
<path d="M109.636 99.1532C110.34 93.4981 112.464 78.621 114.142 71.2997H108.569C104.831 72.1458 101.476 74.1967 99.0182 77.1368C95.0408 82 94.507 92.7882 97.5223 91.8027C100.455 91.4507 104.239 88.7991 107.953 81.9883C107.953 81.9883 105.741 102.057 103.441 105.243C103.441 105.243 99.3702 105.952 99.288 107.278C99.288 107.278 107.501 105.864 112.728 106.31V105.243H106.627C106.627 105.243 108.921 104.803 109.636 99.1415M100.79 88.4413C97.9622 89.7671 100.526 75.4414 105.166 74.0276H109.548C109.548 74.0276 106.451 86.4056 100.79 88.4413Z" fill="#D9AC28"/>
<path d="M148.419 35.7435V27.5767H152.246C152.84 27.5513 153.434 27.6266 154.001 27.7988C154.406 27.9452 154.746 28.2188 154.963 28.5737C155.202 28.9455 155.327 29.373 155.324 29.8082C155.335 30.08 155.29 30.3514 155.191 30.6067C155.091 30.862 154.94 31.0962 154.744 31.2959C154.239 31.7398 153.589 32.0077 152.902 32.0553C153.153 32.1589 153.387 32.2964 153.596 32.4633C153.959 32.7852 154.277 33.1498 154.542 33.5481L156.045 35.7693H154.613L153.465 34.075C153.21 33.685 152.935 33.3074 152.639 32.9437C152.477 32.7413 152.279 32.5667 152.054 32.4272C151.896 32.326 151.72 32.2509 151.535 32.2051C151.325 32.1746 151.113 32.1625 150.901 32.1689H149.578V35.7848L148.419 35.7435ZM149.567 31.1823H152.011C152.425 31.1971 152.839 31.1447 153.235 31.0273C153.515 30.9332 153.753 30.7508 153.908 30.5108C154.058 30.2944 154.138 30.0412 154.137 29.7824C154.142 29.6017 154.105 29.4222 154.027 29.2569C153.95 29.0916 153.834 28.9447 153.689 28.8268C153.286 28.5467 152.788 28.4146 152.289 28.4549H149.556L149.567 31.1823Z" fill="#491819"/>
<path d="M151.774 38.7004C150.306 38.7004 148.87 38.2648 147.648 37.4487C146.427 36.6327 145.475 35.4727 144.913 34.1157C144.351 32.7586 144.204 31.2653 144.49 29.8247C144.777 28.384 145.484 27.0607 146.523 26.022C147.562 24.9834 148.885 24.276 150.326 23.9894C151.766 23.7029 153.26 23.85 154.617 24.4121C155.974 24.9742 157.134 25.9261 157.95 27.1474C158.766 28.3688 159.201 29.8047 159.201 31.2736C159.201 33.2433 158.419 35.1323 157.026 36.5251C155.633 37.9179 153.744 38.7004 151.774 38.7004ZM151.774 24.5214C150.438 24.5214 149.131 24.9179 148.019 25.6607C146.908 26.4036 146.042 27.4594 145.53 28.6946C145.019 29.9298 144.885 31.2889 145.147 32.6C145.408 33.9111 146.052 35.1153 146.998 36.0602C147.944 37.0051 149.148 37.6482 150.46 37.9083C151.771 38.1684 153.13 38.0338 154.365 37.5214C155.6 37.009 156.655 36.1419 157.396 35.0297C158.138 33.9176 158.534 32.6104 158.533 31.2736C158.529 29.4827 157.816 27.7662 156.549 26.5004C155.282 25.2346 153.565 24.5229 151.774 24.5214Z" fill="#491819"/>
<defs>
<linearGradient id="paint0_linear_1_12087" x1="22.3745" y1="81.5149" x2="143.893" y2="81.5149" gradientUnits="userSpaceOnUse">
<stop stop-color="#FFCA06"/>
<stop offset="0.48" stop-color="#FBDE8F"/>
<stop offset="1" stop-color="#FFCA06"/>
</linearGradient>
<linearGradient id="paint1_linear_1_12087" x1="39.2487" y1="59.4966" x2="134.179" y2="108.599" gradientUnits="userSpaceOnUse">
<stop stop-color="#FFCA06"/>
<stop offset="0.48" stop-color="#FBDE8F"/>
<stop offset="1" stop-color="#FFCA06"/>
</linearGradient>
</defs>
</svg>
